# xmcd
#
# Track frame offsets:
#	150
#	14977
#	30005
#	44755
#	55787
#	69972
#	82432
#	96535
#	110400
#	126135
#	137970
#	154520
#	170227
#	181140
#
# Disc length: 2592 seconds
#
# Revision: 0
# Processed by: cddbd v1.5.1PL0 Copyright (c) Steve Scherf et al.
# Submitted via: dBpowerAMP V4.0
#
DISCID=c80a1e0e
DTITLE=Suzamar - Coletania
DYEAR=2005
DGENRE=House
TTITLE0=Unknown #3 - Track01
TTITLE1=Unknown #3 - Track02
TTITLE2=Unknown #3 - Track03
TTITLE3=Unknown #3 - Track04
TTITLE4=Unknown #3 - Track05
TTITLE5=Unknown #3 - Track06
TTITLE6=Unknown #3 - Track07
TTITLE7=Unknown #3 - Track08
TTITLE8=Unknown #3 - Track09
TTITLE9=Unknown #3 - Track10
TTITLE10=Unknown #3 - Track11
TTITLE11=Unknown #3 - Track12
TTITLE12=Unknown #3 - Track13
TTITLE13=Unknown #3 - Track14
EXTD=
EXTT0=
EXTT1=
EXTT2=
EXTT3=
EXTT4=
EXTT5=
EXTT6=
EXTT7=
EXTT8=
EXTT9=
EXTT10=
EXTT11=
EXTT12=
EXTT13=
PLAYORDER=
